<?xml version="1.0" standalone="no"?>
<!DOCTYPE svg PUBLIC "-//W3C//DTD SVG 20010904//EN"
 "http://www.w3.org/TR/2001/REC-SVG-20010904/DTD/svg10.dtd">
<svg version="1.0" xmlns="http://www.w3.org/2000/svg"
 width="960.000000pt" height="960.000000pt" viewBox="0 0 960.000000 960.000000"
 preserveAspectRatio="xMidYMid meet">
<metadata>
Created by potrace 1.14, written by Peter Selinger 2001-2017
</metadata>
<g transform="translate(0.000000,960.000000) scale(0.100000,-0.100000)"
fill="#000000" stroke="none">
<path d="M630 9123 c-1 -87 -1 -229 0 -315 l1 -158 -316 0 c-203 0 -315 -4
-315 -10 0 -10 116 -12 477 -10 l153 1 0 -310 0 -311 -312 0 c-171 0 -313 -2
-316 -5 -3 -3 -3 -7 0 -10 3 -3 145 -6 317 -6 l311 0 0 -309 0 -310 -312 0
c-171 0 -313 -2 -316 -5 -13 -13 21 -15 249 -16 l244 0 -80 -31 c-44 -17 -99
-44 -121 -59 -65 -44 -147 -123 -174 -168 -14 -22 -31 -41 -38 -41 -8 0 -12
-6 -9 -12 2 -7 -4 -29 -13 -48 -17 -34 -35 -86 -48 -145 -8 -35 -10 -4661 -2
-4720 3 -22 9 -46 13 -53 5 -6 6 -12 3 -12 -3 0 8 -30 24 -66 34 -74 35 -78
18 -68 -7 5 -8 3 -4 -5 5 -7 10 -10 13 -7 3 3 24 -21 48 -52 23 -31 62 -75 86
-97 43 -38 123 -95 134 -95 3 0 25 -9 49 -21 40 -18 63 -26 89 -28 5 -1 6 -4
4 -9 -3 -4 -43 -5 -89 -2 -126 8 -398 0 -398 -10 0 -6 122 -10 315 -10 l315 0
0 -310 0 -310 -315 0 c-203 0 -315 -4 -315 -10 0 -10 116 -12 478 -10 l152 1
0 -316 c0 -203 4 -315 10 -315 10 0 12 116 10 478 l-1 152 310 0 311 0 0 -312
c0 -171 2 -313 5 -316 3 -3 7 -3 10 0 3 3 6 145 6 316 l0 312 309 0 310 0 0
-312 c0 -171 2 -313 5 -316 3 -3 7 -3 10 0 3 3 5 145 5 316 l0 312 310 0 310
0 0 -312 c0 -171 2 -313 5 -316 3 -3 7 -3 10 0 3 3 5 145 5 316 l0 312 310 0
310 0 0 -312 c0 -171 2 -313 5 -316 3 -3 7 -3 10 0 3 3 5 145 5 316 l0 312
311 0 310 0 -1 -157 c-2 -365 0 -473 10 -473 6 0 10 112 10 315 l0 315 310 0
310 0 0 -156 c0 -121 -3 -154 -12 -148 -10 6 -10 4 0 -7 8 -9 12 -57 12 -166
0 -95 4 -153 10 -153 6 0 10 112 10 315 l0 315 310 0 311 0 -1 -158 c-2 -364
0 -472 10 -472 6 0 10 112 10 315 l0 315 310 0 310 0 0 -315 c0 -203 4 -315
10 -315 10 0 12 116 10 478 l-1 152 310 0 311 0 0 -312 c0 -171 2 -313 5 -316
3 -3 7 -3 10 0 3 3 6 145 6 316 l0 312 309 0 310 0 0 -312 c0 -171 2 -313 5
-316 3 -3 7 -3 10 0 3 3 5 145 5 316 l0 312 311 0 310 0 -1 -158 c-2 -364 0
-472 10 -472 6 0 10 112 10 315 l0 315 310 0 310 0 0 -312 c0 -171 2 -313 5
-316 3 -3 7 -3 10 0 3 3 5 145 5 316 l0 312 311 0 310 0 -1 -157 c-2 -365 0
-473 10 -473 6 0 10 112 10 315 l0 315 312 0 c171 0 313 2 316 5 3 3 3 7 0 10
-3 3 -145 5 -316 5 l-312 0 0 310 0 310 312 0 c288 0 330 2 317 15 -7 7 -465
9 -476 2 -5 -3 -15 -1 -23 4 -13 9 -13 9 0 7 14 -3 35 4 125 40 83 33 203 132
258 212 17 25 35 48 40 51 5 3 8 9 8 13 -1 3 6 22 14 42 8 20 15 42 15 50 0 7
5 16 11 19 6 4 8 13 5 20 -2 7 -2 16 2 19 3 4 8 14 11 24 10 31 11 4700 2
4725 -5 13 -12 40 -15 60 -3 21 -10 45 -16 55 -9 15 -15 31 -31 77 -2 6 -9 17
-15 25 -82 103 -107 131 -154 168 -30 24 -63 50 -72 58 -10 7 -18 12 -18 9 0
-2 -24 7 -52 20 -29 14 -61 25 -70 25 -10 0 -18 5 -18 10 0 6 85 10 235 10
150 0 235 4 235 10 0 10 -116 12 -477 10 l-153 -1 0 310 0 310 312 0 c171 0
313 3 316 6 3 3 3 7 0 10 -3 3 -145 5 -316 5 l-312 0 0 311 0 310 153 -1 c361
-2 477 0 477 10 0 6 -112 10 -315 10 l-315 0 0 315 c0 203 -4 315 -10 315 -10
0 -12 -116 -10 -477 l1 -153 -310 0 -311 0 0 312 c0 171 -2 313 -5 316 -3 3
-7 3 -10 0 -3 -3 -5 -145 -5 -316 l0 -312 -311 0 -310 0 1 153 c2 368 0 477
-10 477 -7 0 -10 -52 -8 -155 2 -85 1 -155 -2 -155 -3 0 -4 -72 -2 -160 l3
-160 -310 0 -311 0 0 312 c0 171 -2 313 -5 316 -3 3 -7 3 -10 0 -3 -3 -5 -145
-5 -316 l0 -312 -310 0 -310 0 0 312 c0 171 -2 313 -5 316 -3 3 -7 3 -10 0 -3
-3 -5 -145 -5 -316 l0 -312 -310 0 -310 0 0 312 c0 171 -2 313 -5 316 -3 3 -7
3 -10 0 -3 -3 -5 -145 -5 -316 l0 -312 -311 0 -310 0 1 158 c2 364 0 472 -10
472 -6 0 -10 -112 -10 -315 l0 -315 -310 0 -310 0 0 312 c0 171 -2 313 -5 316
-3 3 -7 3 -10 0 -3 -3 -5 -145 -5 -316 l0 -312 -311 0 -310 0 1 153 c2 361 0
477 -10 477 -6 0 -10 -112 -10 -315 l0 -315 -310 0 -310 0 0 312 c0 171 -2
313 -5 316 -3 3 -7 3 -10 0 -3 -3 -5 -145 -5 -316 l0 -312 -310 0 -310 0 0
312 c0 171 -2 313 -5 316 -3 3 -7 3 -10 0 -3 -3 -5 -145 -5 -316 l0 -312 -310
0 -310 0 0 312 c0 171 -2 313 -5 316 -3 3 -7 3 -10 0 -3 -3 -5 -145 -5 -316
l0 -312 -310 0 -310 0 0 312 c0 171 -2 313 -5 316 -3 3 -7 3 -10 0 -3 -3 -5
-145 -5 -316 l0 -312 -311 0 -310 0 1 158 c2 364 0 472 -10 472 -6 0 -10 -59
-10 -157z m640 -803 l0 -310 -310 0 -310 0 0 310 0 309 310 0 310 0 0 -309z
m640 0 l0 -310 -310 0 -309 0 0 310 0 310 309 0 310 0 0 -310z m640 0 l0 -310
-310 0 -310 0 0 310 0 310 310 0 310 0 0 -310z m640 0 l0 -310 -310 0 -310 0
0 310 0 310 310 0 310 0 0 -310z m640 0 l0 -310 -310 0 -310 0 0 310 0 310
310 0 310 0 0 -310z m640 0 l0 -310 -310 0 -310 0 0 310 0 310 310 0 310 0 0
-310z m640 0 l0 -310 -310 0 -310 0 0 156 c0 121 3 154 13 148 10 -6 10 -4 0
7 -9 9 -13 56 -13 161 l0 148 310 0 310 0 0 -310z m640 0 l0 -310 -310 0 -310
0 0 310 0 310 310 0 310 0 0 -310z m640 0 l0 -310 -310 0 -310 0 0 310 0 310
310 0 310 0 0 -310z m640 0 l0 -310 -310 0 -310 0 0 310 0 310 310 0 310 0 0
-310z m640 0 l0 -310 -310 0 -310 0 0 310 0 310 310 0 310 0 0 -310z m640 0
l0 -310 -310 0 -310 0 0 310 0 310 310 0 310 0 0 -310z m640 0 l0 -310 -310 0
-310 0 0 310 0 310 310 0 310 0 0 -310z m-7680 -640 l0 -310 -310 0 -310 0 0
310 0 310 310 0 310 0 0 -310z m640 0 l0 -310 -310 0 -310 0 0 310 0 309 310
0 310 0 0 -309z m639 0 l0 -310 -309 0 -310 0 0 310 0 310 310 0 309 0 0 -310z
m643 169 c2 -77 1 -143 -1 -145 -2 -2 -3 -78 -2 -169 l2 -165 -310 0 -311 0 0
310 0 310 309 0 310 0 3 -141z m638 -169 l0 -310 -310 0 -310 0 0 310 0 310
310 0 310 0 0 -310z m640 0 l0 -310 -310 0 -310 0 0 310 0 310 310 0 310 0 0
-310z m640 0 l0 -310 -310 0 -310 0 0 310 0 309 310 0 310 0 0 -309z m640 0
l0 -309 -310 0 -310 0 0 309 0 310 310 0 310 0 0 -310z m640 0 l0 -310 -310 0
-310 0 0 310 0 310 310 0 310 0 0 -310z m640 0 l0 -310 -310 0 -310 0 0 310 0
310 310 0 310 0 0 -310z m640 0 l0 -310 -310 0 -310 0 0 310 0 310 310 0 310
0 0 -310z m640 0 l0 -310 -310 0 -310 0 0 310 0 309 310 0 310 0 0 -309z m639
0 l0 -310 -309 0 -310 0 0 310 0 310 310 0 309 0 0 -310z m-7679 -1280 l0
-309 -310 0 -310 0 0 309 0 310 310 0 310 0 0 -310z m640 0 l0 -310 -310 0
-309 0 0 310 0 310 309 0 310 0 0 -310z m640 0 l0 -309 -310 0 -310 0 0 309 0
310 310 0 310 0 0 -310z m640 0 l0 -310 -310 0 -310 0 0 310 0 310 310 0 310
0 0 -310z m640 0 l0 -310 -310 0 -310 0 0 310 0 310 310 0 310 0 0 -310z m640
0 l0 -311 -166 1 c-91 1 -167 0 -169 -2 -2 -1 -67 -2 -144 0 l-141 3 0 310 0
309 310 0 310 0 0 -310z m640 0 l0 -310 -310 0 -310 0 0 310 0 310 310 0 310
0 0 -310z m640 0 l0 -309 -310 0 -310 0 0 309 0 310 310 0 310 0 0 -310z m640
0 l0 -310 -310 0 -310 0 0 310 0 310 310 0 310 0 0 -310z m642 10 c2 -165 2
-305 0 -310 -2 -6 -120 -10 -313 -10 l-309 0 0 310 0 310 310 0 309 0 3 -300z
m638 -10 l0 -310 -310 0 -309 0 0 310 0 310 309 0 310 0 0 -310z m640 0 l0
-310 -310 0 -310 0 0 310 0 310 310 0 310 0 0 -310z m640 0 l0 -309 -310 0
-310 0 0 309 0 310 310 0 310 0 0 -310z m-7680 -640 l0 -310 -310 0 -309 0 0
310 0 310 309 0 310 0 0 -310z m40 306 c0 -3 -4 -8 -10 -11 -5 -3 -10 -1 -10
4 0 6 5 11 10 11 6 0 10 -2 10 -4z m600 -6 c0 -5 -4 -10 -10 -10 -5 0 -10 5
-10 10 0 6 5 10 10 10 6 0 10 -4 10 -10z m640 -300 l0 -310 -310 0 -310 0 0
310 0 310 310 0 310 0 0 -310z m40 306 c0 -3 -4 -8 -10 -11 -5 -3 -10 -1 -10
4 0 6 5 11 10 11 6 0 10 -2 10 -4z m600 -6 c0 -5 -4 -10 -10 -10 -5 0 -10 5
-10 10 0 6 5 10 10 10 6 0 10 -4 10 -10z m640 -300 l0 -310 -310 0 -310 0 0
310 0 310 310 0 310 0 0 -310z m50 306 c0 -2 -7 -6 -15 -10 -8 -3 -15 -1 -15
4 0 6 7 10 15 10 8 0 15 -2 15 -4z m590 -11 c0 -8 -2 -15 -4 -15 -2 0 -6 7
-10 15 -3 8 -1 15 4 15 6 0 10 -7 10 -15z m640 -295 l0 -310 -310 0 -310 0 0
310 0 310 310 0 310 0 0 -310z m34 295 c-4 -8 -8 -15 -10 -15 -2 0 -4 7 -4 15
0 8 4 15 10 15 5 0 7 -7 4 -15z m606 5 c0 -5 -4 -10 -10 -10 -5 0 -10 5 -10
10 0 6 5 10 10 10 6 0 10 -4 10 -10z m640 -300 l0 -310 -310 0 -310 0 0 310 0
310 310 0 310 0 0 -310z m34 295 c-4 -8 -8 -15 -10 -15 -2 0 -4 7 -4 15 0 8 4
15 10 15 5 0 7 -7 4 -15z m606 5 c0 -5 -2 -10 -4 -10 -3 0 -8 5 -11 10 -3 6
-1 10 4 10 6 0 11 -4 11 -10z m640 -300 l0 -310 -310 0 -310 0 0 310 0 310
310 0 310 0 0 -310z m40 306 c0 -3 -4 -8 -10 -11 -5 -3 -10 -1 -10 4 0 6 5 11
10 11 6 0 10 -2 10 -4z m600 -6 c0 -5 -4 -10 -10 -10 -5 0 -10 5 -10 10 0 6 5
10 10 10 6 0 10 -4 10 -10z m640 -300 l0 -310 -310 0 -310 0 0 310 0 310 310
0 310 0 0 -310z m-7640 -300 c0 -5 -4 -10 -10 -10 -5 0 -10 5 -10 10 0 6 5 10
10 10 6 0 10 -4 10 -10z m600 0 c0 -5 -8 -10 -17 -10 -15 0 -16 2 -3 10 19 12
20 12 20 0z m680 0 c0 -5 -4 -10 -10 -10 -5 0 -10 5 -10 10 0 6 5 10 10 10 6
0 10 -4 10 -10z m600 0 c0 -5 -4 -10 -10 -10 -5 0 -10 5 -10 10 0 6 5 10 10
10 6 0 10 -4 10 -10z m680 0 c0 -5 -4 -10 -10 -10 -5 0 -10 5 -10 10 0 6 5 10
10 10 6 0 10 -4 10 -10z m600 0 c0 -5 -8 -10 -17 -10 -15 0 -16 2 -3 10 19 12
20 12 20 0z m680 0 c0 -5 -4 -10 -10 -10 -5 0 -10 5 -10 10 0 6 5 10 10 10 6
0 10 -4 10 -10z m600 0 c0 -5 -8 -10 -17 -10 -15 0 -16 2 -3 10 19 12 20 12
20 0z m680 0 c0 -5 -4 -10 -10 -10 -5 0 -10 5 -10 10 0 6 5 10 10 10 6 0 10
-4 10 -10z m600 0 c0 -5 -4 -10 -10 -10 -5 0 -10 5 -10 10 0 6 5 10 10 10 6 0
10 -4 10 -10z m-5760 -340 l0 -310 -310 0 -310 0 0 310 0 310 310 0 310 0 0
-310z m640 0 l0 -310 -310 0 -310 0 0 310 0 310 310 0 310 0 0 -310z m640 0
l0 -310 -310 0 -310 0 0 310 0 310 310 0 310 0 0 -310z m642 169 c2 -77 1
-143 -1 -145 -2 -2 -3 -78 -2 -169 l2 -165 -310 0 -311 0 0 310 0 310 310 0
309 0 3 -141z m638 -169 l0 -310 -310 0 -310 0 0 310 0 310 310 0 310 0 0
-310z m640 0 l0 -310 -310 0 -310 0 0 310 0 310 310 0 310 0 0 -310z m640 0
l0 -310 -310 0 -310 0 0 310 0 310 310 0 310 0 0 -310z m640 0 l0 -310 -310 0
-310 0 0 310 0 310 310 0 310 0 0 -310z m640 0 l0 -310 -310 0 -310 0 0 310 0
310 310 0 310 0 0 -310z m640 0 l0 -310 -310 0 -309 0 -3 150 c-2 83 -1 150 2
150 3 0 4 72 2 160 l-3 160 310 0 311 0 0 -310z m640 0 l0 -310 -310 0 -310 0
0 310 0 310 310 0 310 0 0 -310z m1280 0 l0 -310 -310 0 -310 0 0 310 0 310
310 0 310 0 0 -310z m-7680 -640 l0 -310 -310 0 -310 0 0 310 0 310 310 0 310
0 0 -310z m35 300 c-3 -5 -11 -10 -16 -10 -6 0 -7 5 -4 10 3 6 11 10 16 10 6
0 7 -4 4 -10z m1250 0 c3 -5 2 -10 -4 -10 -5 0 -13 5 -16 10 -3 6 -2 10 4 10
5 0 13 -4 16 -10z m635 -300 l0 -310 -310 0 -310 0 0 310 0 310 310 0 310 0 0
-310z m40 306 c0 -3 -4 -8 -10 -11 -5 -3 -10 -1 -10 4 0 6 5 11 10 11 6 0 10
-2 10 -4z m600 -6 c0 -5 -4 -10 -10 -10 -5 0 -10 5 -10 10 0 6 5 10 10 10 6 0
10 -4 10 -10z m640 -300 l0 -310 -310 0 -310 0 0 310 0 310 310 0 310 0 0
-310z m50 306 c0 -2 -7 -6 -15 -10 -8 -3 -15 -1 -15 4 0 6 7 10 15 10 8 0 15
-2 15 -4z m590 -6 c0 -5 -4 -10 -10 -10 -5 0 -10 5 -10 10 0 6 5 10 10 10 6 0
10 -4 10 -10z m640 -300 l0 -310 -310 0 -310 0 0 310 0 310 310 0 310 0 0
-310z m40 300 c0 -5 -4 -10 -10 -10 -5 0 -10 5 -10 10 0 6 5 10 10 10 6 0 10
-4 10 -10z m610 6 c0 -11 -19 -15 -25 -6 -3 5 1 10 9 10 9 0 16 -2 16 -4z
m630 -306 l0 -310 -310 0 -310 0 0 310 0 310 310 0 310 0 0 -310z m35 300 c-3
-5 -11 -10 -16 -10 -6 0 -7 5 -4 10 3 6 11 10 16 10 6 0 7 -4 4 -10z m1885
-300 l0 -310 -310 0 -310 0 0 310 0 310 310 0 310 0 0 -310z m-5120 -295 c0
-8 -4 -15 -10 -15 -5 0 -7 7 -4 15 4 8 8 15 10 15 2 0 4 -7 4 -15z m-2525 -5
c3 -5 2 -10 -4 -10 -5 0 -13 5 -16 10 -3 6 -2 10 4 10 5 0 13 -4 16 -10z
m1250 0 c-3 -5 -11 -10 -16 -10 -6 0 -7 5 -4 10 3 6 11 10 16 10 6 0 7 -4 4
-10z m670 0 c3 -5 1 -10 -4 -10 -6 0 -11 5 -11 10 0 6 2 10 4 10 3 0 8 -4 11
-10z m1285 0 c0 -5 -4 -10 -10 -10 -5 0 -10 5 -10 10 0 6 5 10 10 10 6 0 10
-4 10 -10z m600 0 c0 -5 -8 -10 -17 -10 -15 0 -16 2 -3 10 19 12 20 12 20 0z
m680 0 c0 -5 -4 -10 -10 -10 -5 0 -10 5 -10 10 0 6 5 10 10 10 6 0 10 -4 10
-10z m600 0 c0 -5 -8 -10 -17 -10 -15 0 -16 2 -3 10 19 12 20 12 20 0z m680 0
c0 -5 -4 -10 -10 -10 -5 0 -10 5 -10 10 0 6 5 10 10 10 6 0 10 -4 10 -10z
m1240 0 c0 -5 -8 -10 -17 -10 -15 0 -16 2 -3 10 19 12 20 12 20 0z m-7040
-340 l0 -310 -310 0 -310 0 0 310 0 310 310 0 310 0 0 -310z m640 0 l0 -310
-310 0 -310 0 0 310 0 310 310 0 310 0 0 -310z m640 0 l0 -310 -310 0 -309 0
0 310 0 310 309 0 310 0 0 -310z m639 0 l0 -310 -309 0 -310 0 0 310 0 310
310 0 309 0 0 -310z m641 0 l0 -310 -310 0 -310 0 0 310 0 310 310 0 310 0 0
-310z m640 0 l0 -310 -310 0 -310 0 0 310 0 310 310 0 310 0 0 -310z m640 0
l0 -310 -310 0 -310 0 0 310 0 310 310 0 310 0 0 -310z m640 0 l0 -310 -310 0
-310 0 0 310 0 310 310 0 310 0 0 -310z m640 0 l0 -310 -310 0 -310 0 0 310 0
310 310 0 310 0 0 -310z m640 0 l0 -310 -310 0 -310 0 0 310 0 310 310 0 310
0 0 -310z m640 0 l0 -310 -310 0 -309 0 0 310 0 310 309 0 310 0 0 -310z m639
0 l0 -310 -309 0 -310 0 0 310 0 310 310 0 309 0 0 -310z m641 0 l0 -310 -310
0 -310 0 0 310 0 310 310 0 310 0 0 -310z m-6360 -335 c-7 -8 -17 -15 -23 -15
-6 0 -2 7 9 15 25 19 30 19 14 0z m5120 0 c-7 -8 -17 -15 -23 -15 -6 0 -2 7 9
15 25 19 30 19 14 0z m-6440 -305 l0 -310 -310 0 -310 0 0 310 0 310 310 0
310 0 0 -310z m40 300 c0 -5 -4 -10 -10 -10 -5 0 -10 5 -10 10 0 6 5 10 10 10
6 0 10 -4 10 -10z m600 0 c0 -5 -4 -10 -10 -10 -5 0 -10 5 -10 10 0 6 5 10 10
10 6 0 10 -4 10 -10z m640 -300 l0 -310 -310 0 -310 0 0 310 0 309 310 0 310
0 0 -309z m4480 300 c0 -5 -4 -10 -10 -10 -5 0 -10 5 -10 10 0 6 5 10 10 10 6
0 10 -4 10 -10z m640 -300 l0 -310 -310 0 -310 0 0 310 0 309 310 0 310 0 0
-309z m640 300 c0 -5 -4 -10 -10 -10 -5 0 -10 5 -10 10 0 6 5 10 10 10 6 0 10
-4 10 -10z m640 -300 l0 -310 -310 0 -310 0 0 310 0 310 310 0 310 0 0 -310z
m-7640 -300 c0 -5 -4 -10 -10 -10 -5 0 -10 5 -10 10 0 6 5 10 10 10 6 0 10 -4
10 -10z m600 0 c0 -5 -8 -10 -17 -10 -15 0 -16 2 -3 10 19 12 20 12 20 0z
m680 0 c0 -5 -4 -10 -10 -10 -5 0 -10 5 -10 10 0 6 5 10 10 10 6 0 10 -4 10
-10z m4440 0 c0 -5 -8 -10 -17 -10 -15 0 -16 2 -3 10 19 12 20 12 20 0z m680
0 c0 -5 -4 -10 -10 -10 -5 0 -10 5 -10 10 0 6 5 10 10 10 6 0 10 -4 10 -10z
m598 -4 c-7 -8 -15 -12 -17 -11 -5 6 10 25 20 25 5 0 4 -6 -3 -14z m-6398
-336 l0 -310 -310 0 -310 0 0 311 0 310 166 -1 c91 -1 167 0 169 2 2 1 67 2
144 0 l141 -3 0 -309z m-640 0 l0 -309 -310 0 -310 0 0 309 0 310 310 0 310 0
0 -310z m1280 0 l0 -310 -310 0 -309 0 0 310 0 309 309 0 310 0 0 -309z m639
0 l0 -310 -309 0 -310 0 0 310 0 310 310 0 309 0 0 -310z m641 0 l0 -310 -310
0 -310 0 0 310 0 310 310 0 310 0 0 -310z m640 0 l0 -310 -310 0 -310 0 0 310
0 310 310 0 310 0 0 -310z m640 0 l0 -310 -310 0 -310 0 0 310 0 310 310 0
310 0 0 -310z m640 0 l0 -310 -310 0 -310 0 0 310 0 310 310 0 310 0 0 -310z
m640 0 l0 -309 -310 0 -310 0 0 309 0 310 310 0 310 0 0 -310z m640 0 l0 -310
-310 0 -310 0 0 310 0 310 310 0 310 0 0 -310z m640 0 l0 -310 -310 0 -309 0
0 310 0 309 309 0 310 0 0 -309z m639 0 l0 -310 -309 0 -310 0 0 310 0 310
310 0 309 0 0 -310z m641 -1 l0 -310 -166 1 c-91 1 -167 0 -169 -2 -2 -1 -67
-2 -144 0 l-141 3 0 309 0 310 310 0 310 0 0 -311z m-7680 -1279 l0 -310 -310
0 -310 0 0 310 0 310 310 0 310 0 0 -310z m639 0 l0 -310 -309 0 -310 0 0 310
0 310 310 0 309 0 0 -310z m641 0 l0 -310 -310 0 -310 0 0 310 0 310 310 0
310 0 0 -310z m640 0 l0 -310 -310 0 -310 0 0 310 0 310 310 0 310 0 0 -310z
m640 0 l0 -310 -310 0 -310 0 0 310 0 310 310 0 310 0 0 -310z m640 0 l0 -310
-310 0 -310 0 0 310 0 310 310 0 310 0 0 -310z m640 0 l0 -310 -310 0 -310 0
0 310 0 310 310 0 310 0 0 -310z m640 0 l0 -310 -310 0 -310 0 0 310 0 310
310 0 310 0 0 -310z m640 0 l0 -310 -310 0 -310 0 0 310 0 310 310 0 310 0 0
-310z m639 0 l0 -310 -309 0 -310 0 0 310 0 310 310 0 309 0 0 -310z m641 0
l0 -310 -310 0 -310 0 0 310 0 310 310 0 310 0 0 -310z m640 0 l0 -310 -310 0
-310 0 0 310 0 310 310 0 310 0 0 -310z m640 0 l0 -310 -310 0 -310 0 0 310 0
310 310 0 310 0 0 -310z"/>
<path d="M955 8361 c-3 -5 -2 -12 3 -15 5 -3 9 1 9 9 0 17 -3 19 -12 6z"/>
<path d="M1570 8318 c0 -6 3 -8 7 -5 3 4 13 1 22 -6 14 -11 14 -10 2 6 -15 20
-31 22 -31 5z"/>
<path d="M2234 8315 c0 -14 4 -25 8 -25 4 0 7 9 5 20 -5 29 -13 33 -13 5z"/>
<path d="M2864 8322 c4 -3 14 -7 22 -8 9 -1 13 0 10 4 -4 3 -14 7 -22 8 -9 1
-13 0 -10 -4z"/>
<path d="M3504 8322 c4 -3 14 -7 22 -8 9 -1 13 0 10 4 -4 3 -14 7 -22 8 -9 1
-13 0 -10 -4z"/>
<path d="M4154 8326 c1 -8 5 -18 8 -22 4 -3 5 1 4 10 -1 8 -5 18 -8 22 -4 3
-5 -1 -4 -10z"/>
<path d="M4795 8361 c-3 -5 -2 -12 3 -15 5 -3 9 1 9 9 0 17 -3 19 -12 6z"/>
<path d="M4776 8322 c-2 -4 9 -8 25 -8 33 -2 33 4 1 11 -12 2 -24 1 -26 -3z"/>
<path d="M5434 8315 c0 -14 4 -25 8 -25 4 0 7 9 5 20 -5 29 -13 33 -13 5z"/>
<path d="M6074 8326 c1 -8 5 -18 8 -22 4 -3 5 1 4 10 -1 8 -5 18 -8 22 -4 3
-5 -1 -4 -10z"/>
<path d="M6704 8322 c4 -3 14 -7 22 -8 9 -1 13 0 10 4 -4 3 -14 7 -22 8 -9 1
-13 0 -10 -4z"/>
<path d="M7344 8322 c4 -3 14 -7 22 -8 9 -1 13 0 10 4 -4 3 -14 7 -22 8 -9 1
-13 0 -10 -4z"/>
<path d="M7994 8320 c0 -13 4 -16 10 -10 7 7 7 13 0 20 -6 6 -10 3 -10 -10z"/>
<path d="M7955 8320 c-3 -5 -1 -10 4 -10 6 0 11 5 11 10 0 6 -2 10 -4 10 -3 0
-8 -4 -11 -10z"/>
<path d="M8624 8322 c4 -3 14 -7 22 -8 9 -1 13 0 10 4 -4 3 -14 7 -22 8 -9 1
-13 0 -10 -4z"/>
<path d="M2873 7687 c0 -7 9 -14 20 -14 11 -1 18 -1 16 0 -2 2 -11 8 -20 15
-12 9 -16 9 -16 -1z"/>
<path d="M3513 7685 c0 -8 4 -15 9 -15 4 0 8 4 8 9 0 6 -4 12 -8 15 -5 3 -9
-1 -9 -9z"/>
<path d="M3510 7641 c0 -6 4 -13 10 -16 6 -3 7 1 4 9 -7 18 -14 21 -14 7z"/>
<path d="M4144 7682 c4 -3 14 -7 22 -8 9 -1 13 0 10 4 -4 3 -14 7 -22 8 -9 1
-13 0 -10 -4z"/>
<path d="M4795 7721 c-3 -5 -2 -12 3 -15 5 -3 9 1 9 9 0 17 -3 19 -12 6z"/>
<path d="M4776 7682 c-2 -4 9 -8 25 -8 33 -2 33 4 1 11 -12 2 -24 1 -26 -3z"/>
<path d="M5436 7687 c3 -10 9 -15 12 -12 3 3 0 11 -7 18 -10 9 -11 8 -5 -6z"/>
<path d="M5435 7649 c-4 -6 -5 -12 -2 -15 2 -3 7 2 10 11 7 17 1 20 -8 4z"/>
<path d="M6064 7682 c4 -3 14 -7 22 -8 9 -1 13 0 10 4 -4 3 -14 7 -22 8 -9 1
-13 0 -10 -4z"/>
<path d="M6713 7687 c0 -7 9 -14 20 -14 11 -1 18 -1 16 0 -2 2 -11 8 -20 15
-12 9 -16 9 -16 -1z"/>
<path d="M7353 7685 c0 -8 4 -15 9 -15 4 0 8 4 8 9 0 6 -4 12 -8 15 -5 3 -9
-1 -9 -9z"/>
<path d="M7355 7649 c-4 -6 -5 -12 -2 -15 2 -3 7 2 10 11 7 17 1 20 -8 4z"/>
<path d="M7990 7701 c0 -6 4 -12 8 -15 5 -3 9 1 9 9 0 8 -4 15 -9 15 -4 0 -8
-4 -8 -9z"/>
<path d="M2233 6365 c0 -8 4 -12 9 -9 5 3 6 10 3 15 -9 13 -12 11 -12 -6z"/>
<path d="M2876 6433 c-6 -14 -5 -15 5 -6 7 7 10 15 7 18 -3 3 -9 -2 -12 -12z"/>
<path d="M2870 6401 c0 -6 4 -12 8 -15 5 -3 9 1 9 9 0 8 -4 15 -9 15 -4 0 -8
-4 -8 -9z"/>
<path d="M3491 6407 c2 -2 11 -8 20 -15 12 -9 16 -9 16 1 0 7 -9 14 -20 14
-11 1 -18 1 -16 0z"/>
<path d="M4144 6402 c4 -3 14 -7 22 -8 9 -1 13 0 10 4 -4 3 -14 7 -22 8 -9 1
-13 0 -10 -4z"/>
<path d="M4796 6447 c3 -10 9 -15 12 -12 3 3 0 11 -7 18 -10 9 -11 8 -5 -6z"/>
<path d="M4756 6402 c-3 -5 1 -9 9 -9 8 0 12 4 9 9 -3 4 -7 8 -9 8 -2 0 -6 -4
-9 -8z"/>
<path d="M4790 6401 c0 -6 4 -13 10 -16 6 -3 7 1 4 9 -7 18 -14 21 -14 7z"/>
<path d="M5413 6404 c8 -9 47 -13 51 -6 2 4 -9 8 -25 8 -17 1 -28 0 -26 -2z"/>
<path d="M5433 6365 c0 -8 4 -12 9 -9 5 3 6 10 3 15 -9 13 -12 11 -12 -6z"/>
<path d="M6064 6402 c4 -3 14 -7 22 -8 9 -1 13 0 10 4 -4 3 -14 7 -22 8 -9 1
-13 0 -10 -4z"/>
<path d="M6716 6433 c-6 -14 -5 -15 5 -6 7 7 10 15 7 18 -3 3 -9 -2 -12 -12z"/>
<path d="M6710 6401 c0 -6 4 -12 8 -15 5 -3 9 1 9 9 0 8 -4 15 -9 15 -4 0 -8
-4 -8 -9z"/>
<path d="M7331 6407 c2 -2 11 -8 20 -15 12 -9 16 -9 16 1 0 7 -9 14 -20 14
-11 1 -18 1 -16 0z"/>
<path d="M7960 6400 c-9 -6 -10 -10 -3 -10 6 0 15 5 18 10 8 12 4 12 -15 0z"/>
<path d="M8010 6400 c0 -5 5 -10 11 -10 5 0 7 5 4 10 -3 6 -8 10 -11 10 -2 0
-4 -4 -4 -10z"/>
<path d="M8633 6365 c0 -8 4 -12 9 -9 5 3 6 10 3 15 -9 13 -12 11 -12 -6z"/>
<path d="M930 5758 c0 -6 3 -8 7 -5 3 4 11 2 18 -3 8 -7 12 -6 12 3 0 7 -9 14
-19 14 -10 1 -18 -3 -18 -9z"/>
<path d="M986 5758 c3 -5 10 -6 15 -3 13 9 11 12 -6 12 -8 0 -12 -4 -9 -9z"/>
<path d="M2234 5766 c1 -8 5 -18 8 -22 4 -3 5 1 4 10 -1 8 -5 18 -8 22 -4 3
-5 -1 -4 -10z"/>
<path d="M2266 5758 c3 -5 10 -6 15 -3 13 9 11 12 -6 12 -8 0 -12 -4 -9 -9z"/>
<path d="M3504 5762 c4 -3 14 -7 22 -8 9 -1 13 0 10 4 -4 3 -14 7 -22 8 -9 1
-13 0 -10 -4z"/>
<path d="M4773 5756 c-3 -6 -3 -8 2 -4 4 4 13 3 20 -2 8 -7 12 -5 12 3 0 16
-25 18 -34 3z"/>
<path d="M6074 5766 c1 -8 5 -18 8 -22 4 -3 5 1 4 10 -1 8 -5 18 -8 22 -4 3
-5 -1 -4 -10z"/>
<path d="M7344 5762 c4 -3 14 -7 22 -8 9 -1 13 0 10 4 -4 3 -14 7 -22 8 -9 1
-13 0 -10 -4z"/>
<path d="M8634 5766 c1 -8 5 -18 8 -22 4 -3 5 1 4 10 -1 8 -5 18 -8 22 -4 3
-5 -1 -4 -10z"/>
<path d="M8666 5758 c3 -5 10 -6 15 -3 13 9 11 12 -6 12 -8 0 -12 -4 -9 -9z"/>
<path d="M955 5161 c-3 -5 -2 -12 3 -15 5 -3 9 1 9 9 0 17 -3 19 -12 6z"/>
<path d="M933 5116 c-3 -6 -3 -8 2 -4 4 4 13 3 20 -2 8 -7 12 -5 12 3 0 16
-25 18 -34 3z"/>
<path d="M1599 5138 c-6 -12 -5 -48 1 -48 4 0 7 11 6 25 -1 22 -3 30 -7 23z"/>
<path d="M2224 5122 c4 -3 14 -7 22 -8 9 -1 13 0 10 4 -4 3 -14 7 -22 8 -9 1
-13 0 -10 -4z"/>
<path d="M2874 5126 c1 -8 5 -18 8 -22 4 -3 5 1 4 10 -1 8 -5 18 -8 22 -4 3
-5 -1 -4 -10z"/>
<path d="M2836 5122 c-3 -5 1 -9 9 -9 8 0 12 4 9 9 -3 4 -7 8 -9 8 -2 0 -6 -4
-9 -8z"/>
<path d="M3513 5127 c0 -8 6 -14 14 -14 9 0 10 4 2 14 -6 7 -12 13 -14 13 -1
0 -2 -6 -2 -13z"/>
<path d="M3513 5085 c0 -8 4 -12 9 -9 5 3 6 10 3 15 -9 13 -12 11 -12 -6z"/>
<path d="M4144 5122 c4 -3 14 -7 22 -8 9 -1 13 0 10 4 -4 3 -14 7 -22 8 -9 1
-13 0 -10 -4z"/>
<path d="M4795 5161 c-3 -5 -2 -12 3 -15 5 -3 9 1 9 9 0 17 -3 19 -12 6z"/>
<path d="M4773 5116 c-3 -6 -3 -8 2 -4 4 4 13 3 20 -2 8 -7 12 -5 12 3 0 16
-25 18 -34 3z"/>
<path d="M5433 5126 c0 -15 22 -15 34 0 4 5 4 6 -1 2 -5 -4 -14 -3 -21 2 -8 7
-12 5 -12 -4z"/>
<path d="M5433 5085 c0 -8 4 -12 9 -9 5 3 6 10 3 15 -9 13 -12 11 -12 -6z"/>
<path d="M6064 5122 c4 -3 14 -7 22 -8 9 -1 13 0 10 4 -4 3 -14 7 -22 8 -9 1
-13 0 -10 -4z"/>
<path d="M6714 5126 c1 -8 5 -18 8 -22 4 -3 5 1 4 10 -1 8 -5 18 -8 22 -4 3
-5 -1 -4 -10z"/>
<path d="M6676 5122 c-3 -5 1 -9 9 -9 8 0 12 4 9 9 -3 4 -7 8 -9 8 -2 0 -6 -4
-9 -8z"/>
<path d="M7353 5127 c0 -8 6 -14 14 -14 9 0 10 4 2 14 -6 7 -12 13 -14 13 -1
0 -2 -6 -2 -13z"/>
<path d="M7353 5085 c0 -8 4 -12 9 -9 5 3 6 10 3 15 -9 13 -12 11 -12 -6z"/>
<path d="M8633 5130 c5 -29 13 -33 13 -5 0 14 -4 25 -8 25 -4 0 -7 -9 -5 -20z"/>
<path d="M955 4521 c-3 -5 -2 -12 3 -15 5 -3 9 1 9 9 0 17 -3 19 -12 6z"/>
<path d="M950 4475 c5 -7 7 -15 3 -18 -3 -4 -1 -7 5 -7 6 0 10 8 9 18 0 10 -7
19 -14 19 -9 0 -10 -4 -3 -12z"/>
<path d="M2879 4528 c-8 -20 -3 -55 7 -55 9 0 10 5 5 11 -5 6 -7 19 -6 29 3
14 -2 25 -6 15z"/>
<path d="M2873 4445 c0 -8 4 -12 9 -9 5 3 6 10 3 15 -9 13 -12 11 -12 -6z"/>
<path d="M4154 4486 c1 -8 5 -18 8 -22 4 -3 5 1 4 10 -1 8 -5 18 -8 22 -4 3
-5 -1 -4 -10z"/>
<path d="M4116 4482 c-3 -5 1 -9 9 -9 8 0 12 4 9 9 -3 4 -7 8 -9 8 -2 0 -6 -4
-9 -8z"/>
<path d="M5434 4486 c1 -8 5 -18 8 -22 4 -3 5 1 4 10 -1 8 -5 18 -8 22 -4 3
-5 -1 -4 -10z"/>
<path d="M5396 4482 c-3 -5 1 -9 9 -9 8 0 12 4 9 9 -3 4 -7 8 -9 8 -2 0 -6 -4
-9 -8z"/>
<path d="M5466 4478 c3 -5 10 -6 15 -3 13 9 11 12 -6 12 -8 0 -12 -4 -9 -9z"/>
<path d="M6715 4521 c-3 -5 -2 -12 3 -15 5 -3 9 1 9 9 0 17 -3 19 -12 6z"/>
<path d="M6700 4485 c0 -2 6 -8 13 -14 10 -8 14 -7 14 2 0 8 -6 14 -14 14 -7
0 -13 -1 -13 -2z"/>
<path d="M8633 4490 c5 -29 13 -33 13 -5 0 14 -4 25 -8 25 -4 0 -7 -9 -5 -20z"/>
<path d="M954 3846 c1 -8 5 -18 8 -22 4 -3 5 1 4 10 -1 8 -5 18 -8 22 -4 3 -5
-1 -4 -10z"/>
<path d="M2235 3881 c-3 -5 -2 -12 3 -15 5 -3 9 1 9 9 0 17 -3 19 -12 6z"/>
<path d="M2213 3836 c-3 -6 -3 -8 2 -4 4 4 13 3 20 -2 8 -7 12 -5 12 3 0 16
-25 18 -34 3z"/>
<path d="M2873 3846 c0 -15 22 -15 34 0 4 5 4 6 -1 2 -5 -4 -14 -3 -21 2 -8 7
-12 5 -12 -4z"/>
<path d="M3504 3842 c4 -3 14 -7 22 -8 9 -1 13 0 10 4 -4 3 -14 7 -22 8 -9 1
-13 0 -10 -4z"/>
<path d="M4155 3881 c-3 -5 -2 -12 3 -15 5 -3 9 1 9 9 0 17 -3 19 -12 6z"/>
<path d="M4140 3845 c0 -2 6 -8 13 -14 10 -8 14 -7 14 2 0 8 -6 14 -14 14 -7
0 -13 -1 -13 -2z"/>
<path d="M4794 3846 c1 -8 5 -18 8 -22 4 -3 5 1 4 10 -1 8 -5 18 -8 22 -4 3
-5 -1 -4 -10z"/>
<path d="M5435 3881 c-3 -5 -2 -12 3 -15 5 -3 9 1 9 9 0 17 -3 19 -12 6z"/>
<path d="M5420 3845 c0 -2 6 -8 13 -14 10 -8 14 -7 14 2 0 8 -6 14 -14 14 -7
0 -13 -1 -13 -2z"/>
<path d="M6051 3847 c2 -2 11 -8 20 -15 12 -9 16 -9 16 1 0 7 -9 14 -20 14
-11 1 -18 1 -16 0z"/>
<path d="M6704 3842 c4 -3 14 -7 22 -8 9 -1 13 0 10 4 -4 3 -14 7 -22 8 -9 1
-13 0 -10 -4z"/>
<path d="M7355 3881 c-3 -5 -2 -12 3 -15 5 -3 9 1 9 9 0 17 -3 19 -12 6z"/>
<path d="M7333 3836 c-3 -6 -3 -8 2 -4 4 4 13 3 20 -2 8 -7 12 -5 12 3 0 16
-25 18 -34 3z"/>
<path d="M7993 3846 c0 -15 22 -15 34 0 4 5 4 6 -1 2 -5 -4 -14 -3 -21 2 -8 7
-12 5 -12 -4z"/>
<path d="M8624 3842 c4 -3 14 -7 22 -8 9 -1 13 0 10 4 -4 3 -14 7 -22 8 -9 1
-13 0 -10 -4z"/>
<path d="M944 3202 c4 -3 14 -7 22 -8 9 -1 13 0 10 4 -4 3 -14 7 -22 8 -9 1
-13 0 -10 -4z"/>
<path d="M2235 3241 c-3 -5 -2 -12 3 -15 5 -3 9 1 9 9 0 17 -3 19 -12 6z"/>
<path d="M2216 3202 c-2 -4 9 -8 25 -8 33 -2 33 4 1 11 -12 2 -24 1 -26 -3z"/>
<path d="M7355 3241 c-3 -5 -2 -12 3 -15 5 -3 9 1 9 9 0 17 -3 19 -12 6z"/>
<path d="M7336 3202 c-2 -4 9 -8 25 -8 33 -2 33 4 1 11 -12 2 -24 1 -26 -3z"/>
<path d="M953 2567 c0 -8 6 -14 14 -14 9 0 10 4 2 14 -6 7 -12 13 -14 13 -1 0
-2 -6 -2 -13z"/>
<path d="M2235 2601 c-3 -5 -2 -12 3 -15 5 -3 9 1 9 9 0 17 -3 19 -12 6z"/>
<path d="M2213 2556 c-3 -6 -3 -8 2 -4 4 4 13 3 20 -2 8 -7 12 -5 12 3 0 16
-25 18 -34 3z"/>
<path d="M2873 2566 c0 -15 22 -15 34 0 4 5 4 6 -1 2 -5 -4 -14 -3 -21 2 -8 7
-12 5 -12 -4z"/>
<path d="M2873 2525 c0 -8 4 -12 9 -9 5 3 6 10 3 15 -9 13 -12 11 -12 -6z"/>
<path d="M3504 2562 c4 -3 14 -7 22 -8 9 -1 13 0 10 4 -4 3 -14 7 -22 8 -9 1
-13 0 -10 -4z"/>
<path d="M4154 2566 c1 -8 5 -18 8 -22 4 -3 5 1 4 10 -1 8 -5 18 -8 22 -4 3
-5 -1 -4 -10z"/>
<path d="M4793 2567 c0 -8 6 -14 14 -14 9 0 10 4 2 14 -6 7 -12 13 -14 13 -1
0 -2 -6 -2 -13z"/>
<path d="M4793 2525 c0 -8 4 -12 9 -9 5 3 6 10 3 15 -9 13 -12 11 -12 -6z"/>
<path d="M5434 2566 c1 -8 5 -18 8 -22 4 -3 5 1 4 10 -1 8 -5 18 -8 22 -4 3
-5 -1 -4 -10z"/>
<path d="M6074 2555 c0 -14 4 -25 8 -25 4 0 7 9 5 20 -5 29 -13 33 -13 5z"/>
<path d="M6704 2562 c4 -3 14 -7 22 -8 9 -1 13 0 10 4 -4 3 -14 7 -22 8 -9 1
-13 0 -10 -4z"/>
<path d="M7355 2601 c-3 -5 -2 -12 3 -15 5 -3 9 1 9 9 0 17 -3 19 -12 6z"/>
<path d="M7333 2556 c-3 -6 -3 -8 2 -4 4 4 13 3 20 -2 8 -7 12 -5 12 3 0 16
-25 18 -34 3z"/>
<path d="M7993 2566 c0 -15 22 -15 34 0 4 5 4 6 -1 2 -5 -4 -14 -3 -21 2 -8 7
-12 5 -12 -4z"/>
<path d="M8624 2562 c4 -3 14 -7 22 -8 9 -1 13 0 10 4 -4 3 -14 7 -22 8 -9 1
-13 0 -10 -4z"/>
<path d="M933 1276 c-3 -6 -3 -8 2 -4 4 4 13 3 20 -2 8 -7 12 -5 12 3 0 16
-25 18 -34 3z"/>
<path d="M1599 1298 c-6 -12 -5 -48 1 -48 4 0 7 11 6 25 -1 22 -3 30 -7 23z"/>
<path d="M2224 1282 c4 -3 14 -7 22 -8 9 -1 13 0 10 4 -4 3 -14 7 -22 8 -9 1
-13 0 -10 -4z"/>
<path d="M2864 1282 c4 -3 14 -7 22 -8 9 -1 13 0 10 4 -4 3 -14 7 -22 8 -9 1
-13 0 -10 -4z"/>
<path d="M3530 1280 c0 -5 5 -10 11 -10 5 0 7 5 4 10 -3 6 -8 10 -11 10 -2 0
-4 -4 -4 -10z"/>
<path d="M4133 1284 c8 -9 47 -13 51 -6 2 4 -9 8 -25 8 -17 1 -28 0 -26 -2z"/>
<path d="M4153 1245 c0 -8 4 -12 9 -9 5 3 6 10 3 15 -9 13 -12 11 -12 -6z"/>
<path d="M4784 1282 c4 -3 14 -7 22 -8 9 -1 13 0 10 4 -4 3 -14 7 -22 8 -9 1
-13 0 -10 -4z"/>
<path d="M5424 1282 c4 -3 14 -7 22 -8 9 -1 13 0 10 4 -4 3 -14 7 -22 8 -9 1
-13 0 -10 -4z"/>
<path d="M6053 1276 c-3 -6 -3 -8 2 -4 4 4 13 3 20 -2 8 -7 12 -5 12 3 0 16
-25 18 -34 3z"/>
<path d="M6713 1286 c0 -15 22 -15 34 0 4 5 4 6 -1 2 -5 -4 -14 -3 -21 2 -8 7
-12 5 -12 -4z"/>
<path d="M6713 1245 c0 -8 4 -12 9 -9 5 3 6 10 3 15 -9 13 -12 11 -12 -6z"/>
<path d="M7344 1282 c4 -3 14 -7 22 -8 9 -1 13 0 10 4 -4 3 -14 7 -22 8 -9 1
-13 0 -10 -4z"/>
<path d="M8630 1281 c0 -6 4 -13 10 -16 6 -3 7 1 4 9 -7 18 -14 21 -14 7z"/>
<path d="M955 9001 c-3 -5 -2 -12 3 -15 5 -3 9 1 9 9 0 17 -3 19 -12 6z"/>
<path d="M2879 9008 c-5 -13 -5 -60 0 -63 4 -2 7 12 7 31 0 29 -3 42 -7 32z"/>
<path d="M4795 9001 c-3 -5 -2 -12 3 -15 5 -3 9 1 9 9 0 17 -3 19 -12 6z"/>
<path d="M6715 9001 c-3 -5 -2 -12 3 -15 5 -3 9 1 9 9 0 17 -3 19 -12 6z"/>
<path d="M8633 8970 c5 -29 13 -33 13 -5 0 14 -4 25 -8 25 -4 0 -7 -9 -5 -20z"/>
<path d="M1599 8978 c-6 -12 -5 -48 1 -48 4 0 7 11 6 25 -1 22 -3 30 -7 23z"/>
<path d="M3514 8966 c1 -8 5 -18 8 -22 4 -3 5 1 4 10 -1 8 -5 18 -8 22 -4 3
-5 -1 -4 -10z"/>
<path d="M5433 8966 c0 -15 22 -15 34 0 4 5 4 6 -1 2 -5 -4 -14 -3 -21 2 -8 7
-12 5 -12 -4z"/>
<path d="M7354 8966 c1 -8 5 -18 8 -22 4 -3 5 1 4 10 -1 8 -5 18 -8 22 -4 3
-5 -1 -4 -10z"/>
<path d="M9273 8966 c0 -15 22 -15 34 0 4 5 4 6 -1 2 -5 -4 -14 -3 -21 2 -8 7
-12 5 -12 -4z"/>
<path d="M304 8962 c4 -3 14 -7 22 -8 9 -1 13 0 10 4 -4 3 -14 7 -22 8 -9 1
-13 0 -10 -4z"/>
<path d="M933 8956 c-3 -6 -3 -8 2 -4 4 4 13 3 20 -2 8 -7 12 -5 12 3 0 16
-25 18 -34 3z"/>
<path d="M2224 8962 c4 -3 14 -7 22 -8 9 -1 13 0 10 4 -4 3 -14 7 -22 8 -9 1
-13 0 -10 -4z"/>
<path d="M3546 8958 c3 -5 10 -6 15 -3 13 9 11 12 -6 12 -8 0 -12 -4 -9 -9z"/>
<path d="M4144 8962 c4 -3 14 -7 22 -8 9 -1 13 0 10 4 -4 3 -14 7 -22 8 -9 1
-13 0 -10 -4z"/>
<path d="M4773 8956 c-3 -6 -3 -8 2 -4 4 4 13 3 20 -2 8 -7 12 -5 12 3 0 16
-25 18 -34 3z"/>
<path d="M6064 8962 c4 -3 14 -7 22 -8 9 -1 13 0 10 4 -4 3 -14 7 -22 8 -9 1
-13 0 -10 -4z"/>
<path d="M6700 8965 c0 -2 6 -8 13 -14 10 -8 14 -7 14 2 0 8 -6 14 -14 14 -7
0 -13 -1 -13 -2z"/>
<path d="M5433 8925 c0 -8 4 -12 9 -9 5 3 6 10 3 15 -9 13 -12 11 -12 -6z"/>
<path d="M9273 8925 c0 -8 4 -12 9 -9 5 3 6 10 3 15 -9 13 -12 11 -12 -6z"/>
<path d="M313 8327 c0 -7 9 -14 20 -14 11 -1 18 -1 16 0 -2 2 -11 8 -20 15
-12 9 -16 9 -16 -1z"/>
<path d="M9273 8327 c0 -7 9 -14 19 -14 10 -1 18 3 18 9 0 6 -3 8 -7 5 -3 -4
-11 -2 -18 3 -8 7 -12 6 -12 -3z"/>
<path d="M276 8322 c-3 -5 1 -9 9 -9 8 0 12 4 9 9 -3 4 -7 8 -9 8 -2 0 -6 -4
-9 -8z"/>
<path d="M9236 8322 c-3 -5 1 -9 9 -9 8 0 12 4 9 9 -3 4 -7 8 -9 8 -2 0 -6 -4
-9 -8z"/>
<path d="M315 7721 c-3 -5 -2 -12 3 -15 5 -3 9 1 9 9 0 17 -3 19 -12 6z"/>
<path d="M9275 7721 c-3 -5 -2 -12 3 -15 5 -3 9 1 9 9 0 17 -3 19 -12 6z"/>
<path d="M304 1282 c4 -3 14 -7 22 -8 9 -1 13 0 10 4 -4 3 -14 7 -22 8 -9 1
-13 0 -10 -4z"/>
<path d="M9253 1284 c8 -9 47 -13 51 -6 2 4 -9 8 -25 8 -17 1 -28 0 -26 -2z"/>
<path d="M9273 1245 c0 -8 4 -12 9 -9 5 3 6 10 3 15 -9 13 -12 11 -12 -6z"/>
<path d="M955 681 c-3 -5 -2 -12 3 -15 5 -3 9 1 9 9 0 17 -3 19 -12 6z"/>
<path d="M6075 681 c-3 -5 -2 -12 3 -15 5 -3 9 1 9 9 0 17 -3 19 -12 6z"/>
<path d="M3513 652 c0 -10 7 -19 14 -19 9 0 10 4 3 12 -5 7 -7 15 -3 18 3 4 1
7 -5 7 -6 0 -10 -8 -9 -18z"/>
<path d="M8633 652 c0 -10 7 -19 14 -19 9 0 10 4 3 12 -5 7 -7 15 -3 18 3 4 1
7 -5 7 -6 0 -10 -8 -9 -18z"/>
<path d="M314 646 c1 -8 5 -18 8 -22 4 -3 5 1 4 10 -1 8 -5 18 -8 22 -4 3 -5
-1 -4 -10z"/>
<path d="M1594 649 c-3 -6 -2 -15 3 -20 5 -5 9 -1 9 11 0 23 -2 24 -12 9z"/>
<path d="M2234 635 c0 -14 4 -25 8 -25 4 0 7 9 5 20 -5 29 -13 33 -13 5z"/>
<path d="M2874 646 c1 -8 5 -18 8 -22 4 -3 5 1 4 10 -1 8 -5 18 -8 22 -4 3 -5
-1 -4 -10z"/>
<path d="M4154 646 c1 -8 5 -18 8 -22 4 -3 5 1 4 10 -1 8 -5 18 -8 22 -4 3 -5
-1 -4 -10z"/>
<path d="M4793 647 c0 -8 6 -14 14 -14 9 0 10 4 2 14 -6 7 -12 13 -14 13 -1 0
-2 -6 -2 -13z"/>
<path d="M5434 646 c1 -8 5 -18 8 -22 4 -3 5 1 4 10 -1 8 -5 18 -8 22 -4 3 -5
-1 -4 -10z"/>
<path d="M6714 646 c1 -8 5 -18 8 -22 4 -3 5 1 4 10 -1 8 -5 18 -8 22 -4 3 -5
-1 -4 -10z"/>
<path d="M7353 647 c0 -8 6 -14 14 -14 9 0 10 4 2 14 -6 7 -12 13 -14 13 -1 0
-2 -6 -2 -13z"/>
<path d="M8002 644 c10 -10 20 -16 22 -13 3 3 -5 11 -17 18 -21 13 -21 12 -5
-5z"/>
<path d="M9274 646 c1 -8 5 -18 8 -22 4 -3 5 1 4 10 -1 8 -5 18 -8 22 -4 3 -5
-1 -4 -10z"/>
<path d="M276 642 c-3 -5 1 -9 9 -9 8 0 12 4 9 9 -3 4 -7 8 -9 8 -2 0 -6 -4
-9 -8z"/>
<path d="M950 635 c5 -7 7 -15 3 -18 -3 -4 -1 -7 5 -7 6 0 10 8 9 18 0 10 -7
19 -14 19 -9 0 -10 -4 -3 -12z"/>
<path d="M1630 639 c0 -5 5 -7 10 -4 6 3 10 8 10 11 0 2 -4 4 -10 4 -5 0 -10
-5 -10 -11z"/>
<path d="M2836 642 c-3 -5 1 -9 9 -9 8 0 12 4 9 9 -3 4 -7 8 -9 8 -2 0 -6 -4
-9 -8z"/>
<path d="M4116 642 c-3 -5 1 -9 9 -9 8 0 12 4 9 9 -3 4 -7 8 -9 8 -2 0 -6 -4
-9 -8z"/>
<path d="M4186 638 c3 -5 10 -6 15 -3 13 9 11 12 -6 12 -8 0 -12 -4 -9 -9z"/>
<path d="M5396 642 c-3 -5 1 -9 9 -9 8 0 12 4 9 9 -3 4 -7 8 -9 8 -2 0 -6 -4
-9 -8z"/>
<path d="M6070 635 c5 -7 7 -15 3 -18 -3 -4 -1 -7 5 -7 6 0 10 8 9 18 0 10 -7
19 -14 19 -9 0 -10 -4 -3 -12z"/>
<path d="M6676 642 c-3 -5 1 -9 9 -9 8 0 12 4 9 9 -3 4 -7 8 -9 8 -2 0 -6 -4
-9 -8z"/>
<path d="M6746 638 c3 -5 10 -6 15 -3 13 9 11 12 -6 12 -8 0 -12 -4 -9 -9z"/>
<path d="M7960 640 c-9 -6 -10 -10 -3 -10 6 0 15 5 18 10 8 12 4 12 -15 0z"/>
<path d="M9236 642 c-3 -5 1 -9 9 -9 8 0 12 4 9 9 -3 4 -7 8 -9 8 -2 0 -6 -4
-9 -8z"/>
<path d="M9306 638 c3 -5 10 -6 15 -3 13 9 11 12 -6 12 -8 0 -12 -4 -9 -9z"/>
<path d="M3513 605 c0 -8 4 -12 9 -9 5 3 6 10 3 15 -9 13 -12 11 -12 -6z"/>
<path d="M4793 605 c0 -8 4 -12 9 -9 5 3 6 10 3 15 -9 13 -12 11 -12 -6z"/>
<path d="M7353 605 c0 -8 4 -12 9 -9 5 3 6 10 3 15 -9 13 -12 11 -12 -6z"/>
<path d="M8633 605 c0 -8 4 -12 9 -9 5 3 6 10 3 15 -9 13 -12 11 -12 -6z"/>
</g>
</svg>
